<?xml version="1.0" encoding="utf-8"?>
<!-- Generator: Adobe Illustrator 27.5.0, SVG Export Plug-In . SVG Version: 6.00 Build 0)  -->
<svg version="1.1" xmlns="http://www.w3.org/2000/svg" xmlns:xlink="http://www.w3.org/1999/xlink" x="0px" y="0px"
	 viewBox="0 0 750 500" style="enable-background:new 0 0 750 500;" xml:space="preserve">
<g id="BACKGROUND">
	<rect style="fill:#EEC5B9;" width="750" height="500"/>
</g>
<g id="OBJECTS">
	<g>
		<defs>
			<rect id="SVGID_1_" width="750" height="500"/>
		</defs>
		<clipPath id="SVGID_00000003082649596860151410000001341390247689988532_">
			<use xlink:href="#SVGID_1_"  style="overflow:visible;"/>
		</clipPath>
		<path style="opacity:0.1;clip-path:url(#SVGID_00000003082649596860151410000001341390247689988532_);fill:#F9F9F9;" d="
			M792.358,97.295c-68.698-16.432-138.526,16.792-201.086,49.588s-131.385,67.195-200.61,53.153
			c-37.696-7.646-70.991-29.061-107.034-42.492c-49.816-18.564-104.358-21.565-157.258-16.286
			c-52.9,5.279-104.632,18.554-156.121,31.785c-0.385,0.77-2.234,3.037-2.619,3.807v59.027c271.936,0,544.935,11.14,816.826,16.093
			L792.358,97.295z"/>
		<path style="opacity:0.1;clip-path:url(#SVGID_00000003082649596860151410000001341390247689988532_);fill:#F9F9F9;" d="
			M800.34,147.088c-14.7-4.583-29.4-9.166-44.1-13.749c-25.83-8.053-51.739-16.126-78.365-20.933
			c-70.419-12.713-144.852-1.606-208.699,30.703c-49.723,25.161-94.246,63.113-148.766,74.645c1.763,0-0.83,3.69,0.933,3.69h460.331
			L800.34,147.088z"/>
		<path style="opacity:0.1;clip-path:url(#SVGID_00000003082649596860151410000001341390247689988532_);fill:#F9F9F9;" d="
			M303.296,220.778c-49.804-12.326-93.692-41.108-140.673-61.726C85.922,125.39-0.271,113.685-83.171,125.671
			c-0.274,1.681,0.306,3.657,0.032,5.338v96.543L303.296,220.778z"/>
		<g style="clip-path:url(#SVGID_00000003082649596860151410000001341390247689988532_);">
			<path style="fill:#EDAE9B;" d="M-118.529,189.418L-15.3,145.087c4.865-2.089,11.563-2.16,16.563-0.175l102.165,40.555
				c5.155,2.046,12.09,1.902,16.963-0.354l11.357-5.256c4.977-2.303,12.087-2.4,17.254-0.235l50.937,21.339
				c4.84,2.028,11.43,2.084,16.376,0.139l10.422-4.097c4.907-1.929,11.438-1.89,16.273,0.096l9.316,3.828
				c4.96,2.038,11.688,2.021,16.615-0.042l82.576-34.584c5.053-2.116,11.979-2.075,16.952,0.101l18.066,7.903
				c5.588,2.445,13.522,2.161,18.519-0.663l0,0c5.021-2.837,13.001-3.109,18.589-0.633l41,18.171
				c5.172,2.292,12.465,2.249,17.552-0.102l21.779-10.069c4.81-2.223,11.634-2.396,16.775-0.423l13.636,5.232
				c4.867,1.868,11.279,1.822,16.062-0.115l102.789-41.618c3.862-1.564,8.861-1.917,13.286-0.94l87.364,19.292
				c4.526,0.999,9.645,0.605,13.532-1.042l46.041-19.512c5.035-2.134,11.968-2.113,16.963,0.051l33.344,14.444
				c3.465,1.501,5.497,3.828,5.497,6.295v175.155c0,4.381-6.285,7.932-14.037,7.932h-965.261c-7.753,0-14.037-3.551-14.037-7.932
				V195.733C-124.072,193.254-122.021,190.918-118.529,189.418z"/>
			<path style="fill:#E89AA3;" d="M-26.17,220.464l63.201-28.01c11.27-4.995,23.915-5.96,35.813-2.733l77.366,20.981
				c8.12,2.202,16.644,2.465,24.884,0.769l6.335-1.304c8.079-1.663,16.433-1.443,24.413,0.644l88.596,23.165
				c9.738,2.546,19.996,2.304,29.603-0.698l54.982-17.183c10-3.126,20.697-3.257,30.771-0.379h0
				c10.809,3.088,22.315,2.706,32.896-1.092l7.296-2.619c7.994-2.87,16.555-3.802,24.979-2.721l147.586,18.942
				c7.205,0.925,14.524,0.378,21.512-1.607l113.341-32.201v192.229c0,29.658-24.042,53.7-53.7,53.7H27.53
				c-29.658,0-53.7-24.042-53.7-53.7V220.464z"/>
			<path style="fill:#AF8CAD;" d="M-26.17,348.007c0-19.17,14.09-35.426,33.066-38.148l140.06-50.88
				c7.223-2.624,15.087-2.922,22.488-0.853l90.315,25.253c0.694-0.131,61.31-16.748,62.01-16.84l65.973-16.662
				c1.671-0.221,3.355-0.331,5.041-0.331h17.134c3.657,0,7.295,0.521,10.805,1.546l95.568,27.914
				c6.87,2.007,14.163,2.061,21.061,0.156l63.654-17.573c2.815-0.777,5.532-1.871,8.099-3.262l57.274-31.024
				c5.636-3.053,11.945-4.652,18.356-4.652h4.748c4.492,0,8.949-0.785,13.171-2.32l8.909-3.24
				c10.579-3.847,22.311-2.876,32.113,2.656l20.587,11.619v116.642c0,21.285-17.255,38.539-38.539,38.539H12.369
				C-8.915,386.546-26.17,369.291-26.17,348.007L-26.17,348.007z"/>
			<path style="fill:#9E81A8;" d="M-36.423,258.831l60.357-20.337c1.576-0.531,3.116-1.166,4.609-1.9l17.754-8.733
				c5.185-2.55,10.887-3.877,16.665-3.877h9.615c8.706,0,17.145,3.009,23.887,8.516l60.264,49.23l85.026,63.998
				c4.967,3.739,10.781,6.193,16.925,7.145l58.457,9.057c1.913,0.296,3.845,0.445,5.781,0.445h61.341
				c6.19,0,12.285-1.522,17.748-4.431l98.655-52.538c1.031-0.549,2.087-1.05,3.164-1.501l28.359-11.875
				c5.81-2.433,12.136-3.374,18.402-2.737l31.471,3.199c4.477,0.455,8.837,1.707,12.873,3.696l50.47,24.875
				c8.441,4.16,18.13,5.018,27.171,2.407l18.517-5.35c7.936-2.293,16.406-1.919,24.109,1.063l8.801,3.407
				c6.656,2.576,13.905,3.214,20.908,1.838l45.035-8.846v84.628H1.334c-20.853,0-37.757-16.905-37.757-37.757V258.831z"/>
			<path style="fill:#84617E;" d="M-59.242,389.889l115.55-36.232c1.246-0.391,2.447-0.913,3.582-1.559l41.077-23.358
				c5.016-2.852,11.081-3.18,16.375-0.886l49.471,21.437c1.215,0.527,2.484,0.92,3.784,1.174l199.725,38.974
				c1.53,0.299,3.091,0.401,4.647,0.305l76.593-4.727c1.121-0.069,2.233-0.241,3.322-0.513l109.13-27.283
				c0.458-0.114,0.92-0.211,1.385-0.29l52.782-8.946c3.418-0.579,6.602-2.115,9.185-4.428l69.055-61.88
				c2.371-2.125,5.253-3.596,8.365-4.27l54.96-11.908V456.31H-59.242V389.889z"/>
			<path style="fill:#281F32;" d="M680.525,382.073l-10.531,3.159c-9.126,2.738-18.944,1.996-27.555-2.083l-14.791-7.006
				c-9.291-4.401-19.957-4.905-29.621-1.399l-55.386,20.091c-3.907,1.417-8.017,2.193-12.171,2.296l-78.975,1.974
				c-3.069,0.077-6.117,0.52-9.081,1.32l-120.913,32.66c-3.275,0.884-6.652,1.333-10.043,1.333h-59.953
				c-5.489,0-10.914-1.173-15.913-3.441l-69.533-31.547c-2.502-1.135-5.118-1.999-7.804-2.578l-84.247-18.146
				c-5.961-1.284-12.142-1.134-18.033,0.437l-69.67,18.579V502h790.085v-91.183l-70.747-27.715
				C697.619,379.96,688.776,379.598,680.525,382.073z"/>
		</g>
		
			<ellipse transform="matrix(0.7071 -0.7071 0.7071 0.7071 103.5066 429.9769)" style="clip-path:url(#SVGID_00000003082649596860151410000001341390247689988532_);fill:#F9F9F9;" cx="570.781" cy="90.045" rx="26.217" ry="26.217"/>
		<g style="clip-path:url(#SVGID_00000003082649596860151410000001341390247689988532_);">
			<path style="fill:#281F32;" d="M281.064,191.644c0,0,1.658,4.544,10.691,6.57l5.096,2.85l3.179-0.414l-2.525-2.431
				c0,0,5.471-2.627,8.376-5.711l5.27-1.884c0,0-8.768,1.287-13.214,4.924l-3.125,1.605l-8.422-2.075
				C286.391,195.079,282.594,193.145,281.064,191.644z"/>
			<path style="fill:#281F32;" d="M14.952,80.85c0,0,1.379,3.779,8.892,5.464l4.239,2.371l2.644-0.344l-2.1-2.022
				c0,0,4.551-2.185,6.966-4.75l4.383-1.567c0,0-7.292,1.071-10.991,4.096l-2.599,1.335l-7.004-1.726
				C19.383,83.707,16.225,82.099,14.952,80.85z"/>
			<path style="fill:#281F32;" d="M191.715,175.337c0,0,2.11,7.093,15.716,11.023l7.518,4.825l4.893-0.337l-3.63-3.947
				c0,0,8.598-3.504,13.319-7.945l8.222-2.389c0,0-13.507,1.153-20.635,6.295l-4.921,2.162l-12.667-3.949
				C199.531,181.075,193.912,177.771,191.715,175.337z"/>
			<path style="fill:#281F32;" d="M228.309,142.742c0,0,1.302,4.345,9.647,6.739l4.614,2.949l2.999-0.212l-2.23-2.415
				c0,0,5.267-2.158,8.155-4.886l5.037-1.474c0,0-8.279,0.723-12.642,3.883l-3.014,1.331l-7.77-2.406
				C233.107,146.251,229.659,144.232,228.309,142.742z"/>
			<path style="fill:#281F32;" d="M142.857,190.391c0,0,0.733,2.446,5.43,3.793l2.597,1.66l1.688-0.12l-1.255-1.359
				c0,0,2.964-1.215,4.59-2.75l2.835-0.83c0,0-4.66,0.407-7.116,2.186l-1.697,0.749l-4.373-1.354
				C145.557,192.366,143.616,191.229,142.857,190.391z"/>
			<path style="fill:#281F32;" d="M343.917,172.611c0,0,0.733,2.446,5.43,3.793l2.597,1.66l1.688-0.12l-1.255-1.359
				c0,0,2.964-1.215,4.59-2.75l2.835-0.829c0,0-4.66,0.407-7.116,2.186l-1.696,0.749l-4.373-1.354
				C346.618,174.585,344.677,173.449,343.917,172.611z"/>
			<polygon style="fill:#281F32;" points="196.915,153.288 193.777,153.81 183.665,154.567 187.85,155.705 184.828,156.843 
				178.435,155.148 171.23,154.567 165.883,155.148 170.993,154.11 177.995,154.331 180.065,153.582 187.023,153.81 			"/>
			<polygon style="fill:#281F32;" points="385.478,236.774 381.461,237.442 368.518,238.411 373.874,239.868 370.006,241.324 
				361.824,239.155 352.6,238.411 345.757,239.155 352.297,237.827 361.26,238.109 363.91,237.15 372.817,237.442 			"/>
			<polygon style="fill:#281F32;" points="311.152,120.086 308.793,120.478 301.195,121.046 304.339,121.902 302.068,122.757 
				297.264,121.483 291.849,121.046 287.831,121.483 291.671,120.703 296.933,120.869 298.489,120.306 303.718,120.478 			"/>
			<polygon style="fill:#281F32;" points="222.991,114.653 221.321,114.93 215.94,115.333 218.167,115.939 216.559,116.544 
				213.157,115.642 209.323,115.333 206.478,115.642 209.196,115.09 212.923,115.207 214.024,114.809 217.727,114.93 			"/>
			<polygon style="fill:#281F32;" points="307.142,167.168 303.126,167.836 290.183,168.804 295.538,170.261 291.67,171.718 
				283.488,169.548 274.265,168.804 267.421,169.548 273.961,168.22 282.924,168.502 285.574,167.544 294.481,167.836 			"/>
			<polygon style="fill:#281F32;" points="102.349,104.171 98.332,104.839 85.389,105.807 90.745,107.264 86.877,108.721 
				78.695,106.551 69.471,105.807 62.628,106.551 69.168,105.223 78.131,105.505 80.78,104.547 89.687,104.839 			"/>
			<polygon style="fill:#281F32;" points="110.025,136.2 120.866,138.439 131.895,143.515 133.606,145.537 135.993,145.268 
				136.324,142.917 143.691,136.489 153.524,135.058 142.817,135.191 135.029,139.612 131.172,139.894 121.743,137.217 			"/>
		</g>
	</g>
</g>
</svg>
